<?xml version="1.0" encoding="utf-8"?>
<!-- Generator: Adobe Illustrator 23.0.4, SVG Export Plug-In . SVG Version: 6.00 Build 0)  -->
<svg version="1.1" id="Layer_1" xmlns="http://www.w3.org/2000/svg" xmlns:xlink="http://www.w3.org/1999/xlink" x="0px" y="0px"
	 viewBox="0 0 231.7 59.15" style="enable-background:new 0 0 231.7 59.15;" xml:space="preserve">
<style type="text/css">
	.st0{clip-path:url(#SVGID_2_);fill:none;stroke:#FFFFFF;stroke-width:2.634;stroke-miterlimit:1.053;}
</style>
<g>
	<defs>
		<rect id="SVGID_1_" y="0" width="231.7" height="59.15"/>
	</defs>
	<clipPath id="SVGID_2_">
		<use xlink:href="#SVGID_1_"  style="overflow:visible;"/>
	</clipPath>
	<path class="st0" d="M172.32,56.67h10.53V33.6c0-5.26,2.86-8.67,7.12-8.67c3.87,0,6.12,2.32,6.12,6.81v24.93h10.53V33.6
		c0-5.26,2.71-8.67,7.12-8.67c3.87,0,6.11,2.32,6.11,6.81v24.93h10.53V29.96c0-8.67-4.72-14.09-13.08-14.09
		c-5.03,0-9.21,2.63-11.92,6.97h-0.15c-1.93-4.18-5.96-6.97-10.99-6.97c-5.5,0-9.37,2.79-11.53,6.43h-0.23v-5.34h-10.14V56.67z
		 M165.51,56.67V16.95h-10.53v22.91c0,5.26-3.02,8.98-7.97,8.98c-4.49,0-6.58-2.55-6.58-7.2V16.95h-10.45v26.47
		c0,8.67,4.95,14.32,13.78,14.32c5.57,0,8.67-2.09,11.38-5.73h0.23v4.64H165.51z M112.95,10.76h10.53V1.32h-10.53V10.76z
		 M112.95,56.67h10.53V16.95h-10.53V56.67z M95.45,56.67h10.53V1.32H95.45V56.67z M70.99,24c4.8,0,8.13,3.48,8.44,8.51H61.78
		C62.71,27.33,65.42,24,70.99,24z M71.84,57.83c10.22,0,16.49-5.96,17.96-13.01H79.43c-1.16,3.02-3.56,4.88-7.66,4.88
		c-5.96,0-9.37-3.79-10.14-9.91h28.8c0-14.17-6.81-23.92-19.59-23.92c-11.61,0-19.59,9.13-19.59,20.9
		C51.25,48.62,58.68,57.83,71.84,57.83z M1.32,56.67h11.23V32.28H34.3v24.38h11.22V1.32H34.3v21.67H12.54V1.32H1.32V56.67z"/>
</g>
</svg>
